G04 ===== Begin FILE IDENTIFICATION =====*
G04 File Format:  Gerber RS274X*
G04 ===== End FILE IDENTIFICATION =====*
%FSLAX25Y25*%
%MOIN*%
%SFA1.0000B1.0000*%
%OFA0.0B0.0*%
%ADD14R,0.039370X0.049213*%
%ADD15R,0.049213X0.039370*%
%ADD16R,0.024606X0.049213*%
%ADD17C,0.039370*%
%ADD18R,0.049213X0.024606*%
%ADD19R,0.157480X0.023622*%
%ADD20R,0.023622X0.059055*%
%ADD21R,0.059055X0.023622*%
%ADD22R,0.826772X0.118504*%
%ADD23R,0.023622X0.011811*%
%ADD24C,0.007874*%
%ADD25R,0.106299X0.023622*%
%ADD26R,0.023622X0.019685*%
%ADD27R,0.023622X0.078740*%
%ADD28R,0.094488X0.023622*%
%ADD29R,0.039370X0.118504*%
%ADD30R,0.118504X0.866142*%
%ADD31R,0.118504X0.059252*%
%ADD32C,0.078740*%
%ADD33R,0.068898X0.023622*%
%ADD34C,0.000984*%
%LNcond*%
%IPPOS*%
%LPD*%
G75*
D14*
X176988Y98445D03*
D15*
X163012Y89390D03*
D14*
X184469Y98445D03*
D15*
X163012Y80728D03*
D16*
X187667Y98445D03*
D17*
X186437D03*
D18*
X163012Y77530D03*
D17*
Y78760D03*
D19*
X120886Y98445D03*
G36*
G01X161831Y99626D02*
G01Y97264D01*
G01X164193D01*
G01Y99626D01*
G01X161831D01*
G37*
G36*
G01X128760Y99626D02*
G01Y97264D01*
G01X131122D01*
G01Y99626D01*
G01X128760D01*
G37*
D20*
X129941Y83681D03*
D21*
X134075Y98445D03*
D20*
X129941Y94311D03*
G36*
G01X160551Y91358D02*
G01X165472D01*
G01X164193Y95295D01*
G01X161831D01*
G01X160551Y91358D01*
G37*
G36*
G01X175020Y95984D02*
G01Y100906D01*
G01X171083Y99626D01*
G01Y97264D01*
G01X175020Y95984D01*
G37*
D22*
X53169Y98445D03*
G36*
G01X107106Y104370D02*
G01Y92520D01*
G01X113012Y97264D01*
G01Y99626D01*
G01X107106Y104370D01*
G37*
D23*
X129941Y72264D03*
D24*
Y72854D03*
D25*
X156516Y98445D03*
D26*
X163012Y96280D03*
D27*
X129941Y76791D03*
D28*
X146476Y98445D03*
D29*
X-1988D03*
X96476D03*
X105138D03*
G36*
G01X-20Y104370D02*
G01Y92520D01*
G01X11831D01*
G01Y104370D01*
G01X-20D01*
G37*
D30*
X5906Y49213D03*
D31*
Y2943D03*
D32*
Y5906D03*
D33*
X167638Y98445D03*
D34*
G01X-3937Y-14961D02*
G01X189764D01*

G01Y125984D01*

G01X-3937D01*

G01Y-14961D01*
M02*

